<svg width="77" height="91" viewBox="0 0 77 91" fill="none" xmlns="http://www.w3.org/2000/svg">
<path d="M44.0374 90.3524C41.9132 90.6673 39.7396 90.8318 37.5279 90.8318C29.4374 90.8318 21.8579 88.6476 15.3427 84.8406C16.3724 81.0192 18.3536 77.6225 20.9945 74.8857C20.8823 75.0019 20.7706 75.1187 20.6608 75.2372H47.8673L44.0374 90.3524Z" fill="#E9E3D5"/>
<path d="M59.7132 84.8406C58.7587 81.2986 56.9802 78.1854 54.7981 75.683C53.3807 74.0954 51.9117 72.7508 50.0547 71.5692C49.9274 71.4767 49.301 71.0971 49.0997 70.9794C39.6363 65.4302 27.8719 67.4446 20.661 75.2374C26.9079 77.7975 33.6626 78.9667 40.4479 78.6537C40.7013 78.719 40.9396 78.7477 41.1658 78.7477C42.7519 78.7477 44.0378 80.0336 44.0378 81.6197V90.3524C49.683 89.5151 54.9794 87.6069 59.7132 84.8406Z" fill="#D3CDBF"/>
<path d="M54.4256 87.4698C52.9182 88.0971 51.3687 88.6431 49.782 89.1023V78.7478C52.1026 81.0952 53.7538 84.1057 54.4256 87.4698Z" fill="#A19B8D"/>
<path d="M25.274 78.7478V89.1023C23.6874 88.6433 22.1379 88.0971 20.6304 87.4698C21.3023 84.1057 22.9533 81.0952 25.274 78.7478Z" fill="#B6B0A2"/>
<path d="M38.2941 84.5887C39.0871 84.5887 39.73 83.9458 39.73 83.1527C39.73 82.3597 39.0871 81.7168 38.2941 81.7168C37.501 81.7168 36.8582 82.3597 36.8582 83.1527C36.8582 83.9458 37.501 84.5887 38.2941 84.5887Z" fill="#3E4954"/>
<path d="M38.2941 90.3326C39.0871 90.3326 39.73 89.6897 39.73 88.8967C39.73 88.1037 39.0871 87.4608 38.2941 87.4608C37.501 87.4608 36.8582 88.1037 36.8582 88.8967C36.8582 89.6897 37.501 90.3326 38.2941 90.3326Z" fill="#3E4954"/>
<path d="M65.0993 47.5904C65.0993 32.7468 53.0582 16.9554 38.2937 16.9554C26.0483 16.9554 15.7214 27.7865 12.5169 39.9087C11.3455 39.3127 10.0207 38.9743 8.6161 38.9743C3.85762 38.9743 0 42.8317 0 47.5904C0 52.349 3.85743 56.2065 8.6161 56.2065C8.86288 56.2065 9.10644 56.1936 9.34793 56.1733C9.5881 61.1063 12.2275 65.8017 16.8534 68.5442C30.0153 76.3465 46.5721 76.3465 59.7341 68.5442C67.1214 64.1649 69.3948 54.8818 65.0993 47.5904Z" fill="#FFB578"/>
<path d="M67.9714 38.9743C66.566 38.9743 65.2405 39.3129 64.0685 39.9098C61.9454 31.8763 56.6979 24.4243 49.8487 20.3016C49.8487 20.3016 57.239 29.0202 57.239 45.6767C57.239 50.7694 54.5132 55.6814 49.7155 58.5253C37.6293 65.6899 22.681 66.2743 10.127 60.2811C11.2518 63.6163 13.5423 66.5811 16.8536 68.544C30.0155 76.3464 46.5723 76.3464 59.7341 68.544C64.3817 65.7889 67.003 61.0931 67.2401 56.1733C67.4814 56.1936 67.7248 56.2065 67.9714 56.2065C72.7299 56.2065 76.5875 52.349 76.5875 47.5904C76.5875 42.8317 72.7299 38.9743 67.9714 38.9743Z" fill="#F7A16E"/>
<path d="M8.61648 50.4633C10.2027 50.4633 11.4885 49.1775 11.4885 47.5913C11.4885 46.0051 10.2027 44.7193 8.61648 44.7193C7.0303 44.7193 5.74445 46.0051 5.74445 47.5913C5.74445 49.1775 7.0303 50.4633 8.61648 50.4633Z" fill="#F7A16E"/>
<path d="M67.9715 50.4633C69.5577 50.4633 70.8436 49.1775 70.8436 47.5913C70.8436 46.0051 69.5577 44.7193 67.9715 44.7193C66.3853 44.7193 65.0995 46.0051 65.0995 47.5913C65.0995 49.1775 66.3853 50.4633 67.9715 50.4633Z" fill="#CE795F"/>
<path d="M12.5169 39.8981C14.4505 40.8818 15.9629 42.5732 16.713 44.6313C17.0566 45.5743 18.2399 45.8973 18.9953 45.2368C22.608 42.0787 24.891 37.4379 24.891 32.2623C24.891 29.0447 24.0081 26.0338 22.4727 23.4564C22.4727 23.4566 10.865 26.6637 12.5169 39.8981Z" fill="#596775"/>
<path d="M54.1147 23.4566C52.5795 26.0338 51.6964 29.0449 51.6964 32.2625C51.6964 37.4382 53.9792 42.0789 57.5922 45.237C58.3479 45.8975 59.5311 45.5745 59.8744 44.6315C60.6242 42.5732 62.1369 40.882 64.0705 39.8983C65.7226 26.6637 54.1147 23.4566 54.1147 23.4566Z" fill="#46525E"/>
<path d="M63.1848 11.2008H13.4031V31.6784H63.1848V11.2008Z" fill="#E9E3D5"/>
<path d="M62.1316 -1.52588e-05C60.7429 -1.52588e-05 15.1911 -1.52588e-05 14.456 -1.52588e-05C9.64471 -1.52588e-05 5.74426 3.90043 5.74426 8.71174C5.74426 13.5231 9.64471 17.4235 14.456 17.4235C14.8252 17.4235 61.1808 17.4235 62.1316 17.4235C66.943 17.4235 70.8434 13.5231 70.8434 8.71174C70.8434 3.90043 66.943 -1.52588e-05 62.1316 -1.52588e-05Z" fill="#E9E3D5"/>
<path d="M70.8434 8.71173C70.8434 7.19883 70.4572 5.7763 69.7788 4.53659C67.9144 5.01051 66.5352 6.7 66.5352 8.71173C66.5352 11.1398 64.5597 13.1155 62.1315 13.1155H14.456C12.4443 13.1155 10.7548 14.4947 10.2809 16.359C11.5206 17.0375 12.9431 17.4237 14.456 17.4237H22.9763H38.2937C48.8563 17.4237 61.1593 17.4237 62.1315 17.4237C66.943 17.4235 70.8434 13.5232 70.8434 8.71173Z" fill="#D3CDBF"/>
<path d="M15.7006 8.71177C15.7006 7.91863 15.0577 7.27585 14.2647 7.27585C13.4716 7.27585 12.8288 7.91882 12.8288 8.71177C12.8288 11.0991 13.6595 13.2952 15.0447 15.0301H19.3762C17.1828 13.7755 15.7006 11.4144 15.7006 8.71177Z" fill="#D3CDBF"/>
<path d="M63.7591 8.71177C63.7591 7.91863 63.1161 7.27585 62.3231 7.27585C61.5302 7.27585 60.8872 7.91882 60.8872 8.71177C60.8872 11.4144 59.4051 13.7755 57.212 15.0301H61.5436C62.9284 13.2952 63.7591 11.0993 63.7591 8.71177Z" fill="#D3CDBF"/>
<path d="M53.6112 7.27585C52.8181 7.27585 52.1753 7.91882 52.1753 8.71177C52.1753 11.4144 50.6932 13.7755 48.5001 15.0301H52.8317C54.2167 13.295 55.0475 11.0991 55.0475 8.71177C55.0473 7.91882 54.4044 7.27585 53.6112 7.27585Z" fill="#D3CDBF"/>
<path d="M27.1886 8.71177C27.1886 7.91863 26.5457 7.27585 25.7527 7.27585C24.9597 7.27585 24.3168 7.91882 24.3168 8.71177C24.3168 11.0991 25.1475 13.2952 26.5326 15.0301H30.8642C28.671 13.7755 27.1886 11.4144 27.1886 8.71177Z" fill="#D3CDBF"/>
</svg>
