<svg xmlns="http://www.w3.org/2000/svg" viewBox="0 0 500 435.354"><g id="freepik--background-complete--inject-100"><path d="M259.339,416.323l-9.483-145.703,.321-.023,10.77,145.613c-.536,.04-1.071,.077-1.608,.112Zm-29.429-.101l-1.4-.108,11.644-145.545,.526,.04-10.77,145.613Zm60.678-4.366l-31.856-142.494,.691-.155,32.36,142.379-1.195,.269Zm-91.493-.23l-1.375-.317,33.179-142.191,.508,.117-32.312,142.391Zm121.194-8.722l-52.444-136.267,.382-.148,53.482,135.862c-.471,.186-.945,.371-1.42,.553Zm-151.054-.458l-1.31-.518,54.079-135.626,.493,.195-53.263,135.95Zm179.354-12.964l-72.442-126.773,.487-.279,73.14,126.372-1.186,.681Zm-207.539-.611c-.433-.25-.866-.503-1.298-.757l74.012-125.862,.375,.219-73.089,126.4Zm233.232-16.681l-90.209-114.81,.28-.222,91.16,114.058c-.409,.327-.819,.652-1.231,.975Zm-258.91-.832c-.454-.361-.906-.724-1.356-1.09l92.154-113.255,.151,.121-90.949,114.225Zm281.96-20.265l-106.413-99.977,.337-.361,107.057,99.287-.982,1.051Zm-304.824-.926l-.916-.992,107.471-98.839,.394,.427-106.949,99.403Zm324.315-23.137l-119.879-83.357,.178-.258,120.62,82.279c-.304,.447-.61,.891-.919,1.336Zm-343.736-1.151c-.288-.421-.576-.845-.86-1.268l121.121-81.54,.222,.327-120.483,82.481Zm359.67-25.959l-131.193-64.091,.298-.612,131.444,63.574-.549,1.129Zm-375.31-1.025c-.224-.463-.446-.927-.667-1.392l131.951-62.515,.165,.344-131.449,63.562Zm386.855-27.791l-139.187-44.111,.105-.341,139.554,42.94c-.156,.504-.313,1.009-.473,1.512Zm-398.313-1.316c-.146-.472-.29-.944-.433-1.416l139.817-42.075,.132,.431-139.516,43.061Zm405.495-29.275l-144.283-22.396,.081-.534,144.412,21.554-.21,1.377Zm-412.439-1.129c-.075-.494-.147-.989-.218-1.483l144.534-20.709,.063,.428-144.38,21.765Zm414.937-29.62l-146.005-1.296v-.603h146.012v.285c0,.538-.002,1.077-.007,1.614Zm-271.258-1.472H36.714l.003-1.345,146.009,.758-.002,.588Zm124.593-9.339l-.046-.308,144.347-21.975c.082,.534,.161,1.068,.238,1.604l-144.539,20.679Zm-123.901-.217l-144.447-21.312c.075-.505,.151-1.01,.23-1.514l144.278,22.429-.06,.396Zm121.952-8.603l-.204-.666,139.497-43.122,.363,1.182-139.656,42.606Zm-119.92-.38L45.877,146.874l.429-1.379,139.291,43.783-.148,.475Zm116.568-8.347l-.251-.524,131.408-63.648,.584,1.212-131.74,62.959Zm-113.197-.281L57.293,117.726l.59-1.217,131.193,64.091-.256,.526Zm108.608-7.791l-.373-.55,120.481-82.481,.712,1.045-120.82,81.985Zm-103.893-.382L72.846,90.774c.282-.415,.566-.828,.852-1.241l120.08,83.066-.243,.354Zm97.853-7.264l-.184-.198,106.843-99.518c.377,.405,.753,.812,1.126,1.22l-107.784,98.496Zm-91.987-.092L92.243,66.418c.34-.367,.681-.733,1.024-1.098l106.426,99.963-.293,.314Zm85.193-6.261l-.322-.258,90.949-114.225c.396,.315,.793,.633,1.187,.952l-91.814,113.531Zm-78.289-.158L115.014,45.227c.409-.328,.819-.653,1.23-.977l90.342,114.706-.281,.223Zm70.638-5.129l-.421-.245L349.45,27.31l1.252,.727-73.758,126.012Zm-62.917-.155L140.724,27.617c.433-.251,.866-.5,1.3-.748l72.372,126.813-.37,.213Zm54.466-3.977l-.382-.151L321.3,13.788c.475,.186,.949,.373,1.42,.562l-54.227,135.568Zm-46.056-.091L168.768,14.037c.479-.19,.959-.377,1.44-.562l52.588,136.211-.359,.14Zm37.229-2.677l-.384-.088L291.344,4.615c.501,.113,1.001,.227,1.5,.344l-33.177,142.191Zm-28.423-.048L198.679,4.769c.507-.116,1.015-.231,1.525-.343l31.401,142.594-.361,.081Zm19.154-1.382l-.411-.031L260.543,.06c.506,.037,1.011,.075,1.515,.116l-11.66,145.544Zm-9.898-.015L229.499,.108c.504-.038,1.009-.074,1.515-.108l9.898,145.675-.413,.029Z" style="fill:#ebebeb;"></path><g><path d="M72.282,133.85c1.292,38.721,25.28,75.852,60.047,92.948,2.13-20.924-4.12-44.134-16.204-58.385-12.083-14.251-28.091-24.516-43.844-34.562Z" style="fill:#ebebeb;"></path><path d="M141.233,215.144c2.528,15.424,10.266,29.946,21.658,40.647,6.847-12.681,5.327-32.122,2.209-46.191-3.118-14.069-9.614-27.134-16.319-39.89-7.38,13.778-10.077,30.011-7.548,45.435Z" style="fill:#ebebeb;"></path><path d="M184.905,287.97c-.123,0-.245-.045-.341-.135-35.627-33.262-64.85-72.179-86.858-115.669-.125-.246-.026-.547,.221-.672,.246-.126,.546-.026,.672,.221,21.954,43.385,51.107,82.208,86.648,115.39,.202,.188,.212,.505,.024,.706-.098,.105-.231,.159-.365,.159Z" style="fill:#e0e0e0;"></path><path d="M166.779,269.233c-.205,0-.397-.127-.471-.331-8.653-24.152-14.382-49.675-17.514-78.027-.03-.274,.167-.521,.442-.552,.275-.027,.521,.168,.552,.442,3.123,28.273,8.834,53.721,17.461,77.798,.093,.261-.042,.547-.302,.64-.056,.02-.112,.029-.168,.029Z" style="fill:#e0e0e0;"></path><path d="M131.775,251.427c12.621,3.248,24.106,10.756,32.145,21.014-11.041,4.742-27.074,2.033-38.526-1.604-11.453-3.637-21.819-10.005-31.914-16.524,11.992-5.103,25.674-6.134,38.295-2.886Z" style="fill:#ebebeb;"></path><path d="M102.01,215.961c11.662,3.001,22.273,9.938,29.701,19.416-10.201,4.381-25.015,1.878-35.597-1.482-10.582-3.36-20.16-9.244-29.487-15.267,11.08-4.715,23.722-5.668,35.384-2.667Z" style="fill:#ebebeb;"></path><path d="M173,276.493c-.07,0-.142-.015-.209-.046-18.927-8.76-38.022-14.82-61.915-19.648-.271-.055-.446-.318-.391-.589s.315-.446,.589-.392c23.972,4.845,43.135,10.927,62.136,19.721,.25,.116,.36,.413,.244,.664-.084,.183-.265,.29-.454,.29Z" style="fill:#e0e0e0;"></path><path d="M140.042,238.998c-.057,0-.116-.01-.172-.03-13.187-4.847-26.729-9.28-40.248-13.179-.265-.076-.418-.354-.342-.619,.077-.264,.352-.418,.619-.342,13.542,3.904,27.106,8.346,40.315,13.2,.259,.096,.392,.383,.297,.643-.074,.202-.266,.327-.469,.327Z" style="fill:#e0e0e0;"></path></g><g><path d="M428.063,151.812c-2.493,31.974-23.697,61.798-53.077,74.656-.991-17.382,5.031-36.346,15.548-47.687,10.516-11.341,24.132-19.241,37.529-26.969Z" style="fill:#ebebeb;"></path><path d="M368.052,216.503c-2.658,12.662-9.592,24.387-19.406,32.817-5.195-10.738-3.224-26.76-.128-38.28,3.096-11.52,8.949-22.086,14.963-32.387,5.596,11.665,7.229,25.189,4.571,37.851Z" style="fill:#ebebeb;"></path><path d="M329.275,275.207c-.141,0-.281-.06-.38-.176-.18-.21-.154-.525,.056-.704,30.604-26.127,56.134-57.151,75.881-92.212,.136-.242,.442-.325,.681-.19,.241,.135,.326,.44,.19,.681-19.805,35.163-45.409,66.278-76.104,92.481-.094,.081-.209,.12-.324,.12Z" style="fill:#e0e0e0;"></path><path d="M344.954,260.38c-.063,0-.127-.012-.189-.037-.256-.104-.378-.396-.273-.652,8.017-19.588,13.675-40.416,17.297-63.676,.042-.273,.302-.458,.571-.417,.272,.042,.459,.298,.417,.571-3.635,23.338-9.312,44.239-17.359,63.9-.079,.193-.266,.311-.463,.311Z" style="fill:#e0e0e0;"></path><path d="M374.538,246.856c-10.557,2.222-20.331,8.008-27.356,16.195,8.956,4.328,22.314,2.677,31.919,.091,9.605-2.586,18.412-7.471,27-12.49-9.729-4.661-21.006-6.017-31.563-3.796Z" style="fill:#ebebeb;"></path><path d="M400.458,218.622c-9.754,2.053-18.785,7.399-25.276,14.964,8.275,3.999,20.618,2.473,29.492,.084,8.874-2.39,17.012-6.903,24.947-11.54-8.989-4.307-19.409-5.56-29.163-3.507Z" style="fill:#ebebeb;"></path><path d="M339.542,266.154c-.196,0-.384-.117-.463-.311-.104-.255,.018-.548,.273-.652,16.044-6.576,32.122-10.902,52.13-14.027,.272-.038,.528,.143,.571,.417,.043,.272-.145,.528-.417,.571-19.928,3.112-35.937,7.42-51.905,13.965-.062,.025-.126,.037-.189,.037Z" style="fill:#e0e0e0;"></path><path d="M368.177,236.359c-.212,0-.409-.136-.477-.349-.084-.263,.062-.544,.325-.628,11.115-3.531,22.497-6.705,33.831-9.435,.271-.063,.538,.102,.604,.369,.064,.269-.101,.539-.369,.604-11.311,2.723-22.67,5.891-33.763,9.415-.051,.016-.102,.023-.151,.023Z" style="fill:#e0e0e0;"></path></g><g><g><g><path d="M443.92,291.117h-180.746c-3.232,0-5.862-2.63-5.862-5.862V21.981c0-3.232,2.63-5.862,5.862-5.862h180.746c3.232,0,5.862,2.629,5.862,5.862V285.255c0,3.233-2.63,5.862-5.862,5.862ZM263.174,16.37c-3.095,0-5.612,2.518-5.612,5.612V285.255c0,3.095,2.518,5.612,5.612,5.612h180.746c3.095,0,5.612-2.517,5.612-5.612V21.981c0-3.094-2.518-5.612-5.612-5.612h-180.746Z" style="fill:#e0e0e0;"></path><path d="M235.493,291.117H54.746c-3.232,0-5.862-2.63-5.862-5.862V21.981c0-3.232,2.629-5.862,5.862-5.862H235.493c3.232,0,5.862,2.629,5.862,5.862V285.255c0,3.233-2.63,5.862-5.862,5.862ZM54.746,16.37c-3.094,0-5.612,2.518-5.612,5.612V285.255c0,3.095,2.518,5.612,5.612,5.612H235.493c3.095,0,5.612-2.517,5.612-5.612V21.981c0-3.094-2.518-5.612-5.612-5.612H54.746Z" style="fill:#e0e0e0;"></path></g><rect y="352.187" width="500" height=".25" style="fill:#e0e0e0;"></rect></g><rect x="51.672" y="366.451" width="16.06" height=".25" style="fill:#e0e0e0;"></rect><rect x="170.352" y="363.741" width="53.53" height=".25" style="fill:#e0e0e0;"></rect><rect x="68.732" y="375.741" width="36.25" height=".25" style="fill:#e0e0e0;"></rect><rect x="378.352" y="363.611" width="43.19" height=".25" style="fill:#e0e0e0;"></rect><rect x="430.452" y="363.611" width="6.33" height=".25" style="fill:#e0e0e0;"></rect><rect x="316.212" y="369.841" width="53.89" height=".25" style="fill:#e0e0e0;"></rect></g></g><g id="freepik--Shadow--inject-100"><path d="M380.437,429.222c0,3.387-58.781,6.132-131.29,6.132s-131.29-2.745-131.29-6.132,58.781-6.132,131.29-6.132,131.29,2.745,131.29,6.132Z" style="fill:#f5f5f5;"></path></g><g id="freepik--Hearts--inject-100"><path d="M334.972,109.493c2.419-1.949,5.066-1.963,7.651-1.186,2.016,.606,3.241,1.965,4.708,3.632,.68,.772,1.372,2.023,1.914,3.374,.542-1.351,1.234-2.601,1.914-3.374,1.467-1.666,2.692-3.025,4.708-3.632,2.585-.777,5.232-.763,7.651,1.186,2.271,1.831,2.643,5.207,1.97,8.047-.673,2.84-2.543,5.725-4.372,7.827-3.836,4.408-7.238,7.743-11.87,10.149-5.742-3.288-8.034-5.742-11.87-10.149-1.829-2.102-3.699-4.987-4.372-7.827-.673-2.84-.301-6.216,1.97-8.047Z" style="fill:#A8D5BA;"></path><path d="M283.098,51.833c1.032-.832,2.161-.838,3.264-.506,.86,.259,1.383,.839,2.009,1.55,.29,.33,.585,.863,.817,1.44,.231-.577,.527-1.11,.817-1.44,.626-.711,1.148-1.291,2.009-1.55,1.103-.332,2.232-.326,3.264,.506,.969,.781,1.127,2.222,.84,3.433-.287,1.212-1.085,2.443-1.865,3.339-1.637,1.881-3.088,3.304-5.064,4.33-2.45-1.403-3.428-2.45-5.065-4.33-.781-.897-1.578-2.128-1.866-3.339-.287-1.212-.129-2.652,.84-3.433Z" style="fill:#A8D5BA;"></path><path d="M219.339,187.06c.535-.431,1.121-.434,1.692-.262,.446,.134,.717,.435,1.041,.803,.15,.171,.304,.447,.423,.746,.12-.299,.273-.575,.423-.746,.324-.369,.595-.669,1.041-.803,.572-.172,1.157-.169,1.692,.262,.502,.405,.584,1.152,.436,1.78-.149,.628-.562,1.266-.967,1.731-.849,.975-1.601,1.713-2.626,2.245-1.27-.727-1.777-1.27-2.626-2.245-.405-.465-.818-1.103-.967-1.731-.149-.628-.067-1.375,.436-1.78Z" style="fill:#A8D5BA;"></path><path d="M170.286,109.777c.535-.431,1.12-.434,1.692-.262,.446,.134,.717,.435,1.041,.803,.15,.171,.304,.447,.423,.746,.12-.299,.273-.575,.423-.746,.325-.369,.595-.669,1.041-.803,.572-.172,1.157-.169,1.692,.262,.502,.405,.584,1.152,.436,1.78-.149,.628-.563,1.266-.967,1.731-.849,.975-1.601,1.713-2.626,2.245-1.27-.727-1.777-1.27-2.626-2.245-.405-.465-.818-1.103-.967-1.731s-.067-1.375,.436-1.78Z" style="fill:#A8D5BA;"></path><path d="M333.3,90.156c.535-.431,1.121-.434,1.692-.262,.446,.134,.717,.435,1.041,.803,.15,.171,.304,.448,.423,.746,.12-.299,.273-.575,.423-.746,.325-.369,.595-.669,1.041-.803,.572-.172,1.157-.169,1.692,.262,.502,.405,.584,1.152,.436,1.78-.149,.628-.563,1.266-.967,1.731-.849,.975-1.601,1.713-2.626,2.245-1.27-.727-1.777-1.27-2.626-2.245-.405-.465-.818-1.103-.967-1.731-.149-.628-.067-1.375,.436-1.78Z" style="fill:#A8D5BA;"></path><g><path d="M323.845,159.101c1.501-1.209,3.143-1.218,4.747-.736,1.251,.376,2.011,1.219,2.921,2.253,.422,.479,.852,1.255,1.188,2.093,.336-.838,.766-1.614,1.188-2.093,.91-1.034,1.67-1.877,2.921-2.253,1.604-.482,3.246-.474,4.747,.736,1.409,1.136,1.64,3.231,1.222,4.993-.418,1.762-1.578,3.552-2.713,4.856-2.38,2.735-4.491,4.805-7.365,6.297-3.563-2.04-4.985-3.562-7.365-6.297-1.135-1.304-2.295-3.094-2.713-4.856-.418-1.762-.187-3.857,1.222-4.993Z" style="fill:#A8D5BA;"></path><g style="opacity:.3;"><path d="M323.845,159.101c1.501-1.209,3.143-1.218,4.747-.736,1.251,.376,2.011,1.219,2.921,2.253,.422,.479,.852,1.255,1.188,2.093,.336-.838,.766-1.614,1.188-2.093,.91-1.034,1.67-1.877,2.921-2.253,1.604-.482,3.246-.474,4.747,.736,1.409,1.136,1.64,3.231,1.222,4.993-.418,1.762-1.578,3.552-2.713,4.856-2.38,2.735-4.491,4.805-7.365,6.297-3.563-2.04-4.985-3.562-7.365-6.297-1.135-1.304-2.295-3.094-2.713-4.856-.418-1.762-.187-3.857,1.222-4.993Z" style="fill:#fff;"></path></g></g><g><path d="M159.741,145.183c2.322-1.871,4.863-1.885,7.345-1.138,1.936,.582,3.111,1.887,4.52,3.486,.653,.742,1.318,1.942,1.838,3.239,.52-1.297,1.185-2.497,1.838-3.239,1.409-1.6,2.584-2.904,4.52-3.486,2.482-.746,5.023-.733,7.345,1.138,2.181,1.757,2.537,4.999,1.891,7.725-.646,2.726-2.441,5.496-4.197,7.514-3.683,4.231-6.948,7.434-11.396,9.743-5.513-3.157-7.713-5.512-11.396-9.743-1.756-2.018-3.551-4.788-4.198-7.514-.646-2.726-.289-5.968,1.891-7.725Z" style="fill:#A8D5BA;"></path><g style="opacity:.3;"><path d="M159.741,145.183c2.322-1.871,4.863-1.885,7.345-1.138,1.936,.582,3.111,1.887,4.52,3.486,.653,.742,1.318,1.942,1.838,3.239,.52-1.297,1.185-2.497,1.838-3.239,1.409-1.6,2.584-2.904,4.52-3.486,2.482-.746,5.023-.733,7.345,1.138,2.181,1.757,2.537,4.999,1.891,7.725-.646,2.726-2.441,5.496-4.197,7.514-3.683,4.231-6.948,7.434-11.396,9.743-5.513-3.157-7.713-5.512-11.396-9.743-1.756-2.018-3.551-4.788-4.198-7.514-.646-2.726-.289-5.968,1.891-7.725Z" style="fill:#fff;"></path></g></g></g><g id="freepik--Character--inject-100"><g><g><path d="M254.208,81.985c-.131,0-.262-.051-.359-.153-.192-.199-.187-.515,.012-.707,4.932-4.758,8.669-10.716,10.808-17.229,.085-.263,.368-.407,.631-.319,.262,.086,.405,.369,.318,.631-2.188,6.667-6.014,12.766-11.062,17.637-.098,.094-.223,.14-.348,.14Z" style="fill:#263238;"></path><path d="M233.658,44.156c4.845,.222,9.758,.586,14.347,2.332,10.383,3.822,14.606,14.255,9.865,24.236-2.111,4.435-5.647,8.042-9.679,10.752,3.724-3.006,7.069-6.656,8.979-11.071,4.246-9.687,.333-19.265-9.451-23.207-4.437-1.875-9.309-2.409-14.061-3.042h0Z" style="fill:#263238;"></path><path d="M259.317,62.816c-.662-3.036-4.379-11.386-15.934-16.967-6.722-3.246-11.584-4.087-22.37-2.505-13.075,1.918-24.067,11.872-29.623,23.862-2.145,4.629-3.606,9.692-3.297,14.785,.309,5.092,2.574,10.217,6.714,13.197-5.173-.02-8.759,6.25-7.276,11.206,1.482,4.956,6.547,8.16,11.653,8.989,5.107,.829,10.307-.265,15.365-1.354l38.543-33.597c2.532-1.801,8.682-6.35,6.225-17.617Z" style="fill:#263238;"></path><path d="M227.901,100.799c-9.081,0-17.568-4.905-22.074-10.758-5.156-6.699-7.083-15.513-5.729-26.196,.746-5.875,6.476-14.688,13.817-18.441,.247-.124,.548-.027,.673,.218,.125,.246,.028,.547-.218,.673-6.956,3.556-12.582,12.17-13.28,17.677-1.321,10.412,.54,18.978,5.528,25.46,6.078,7.895,17.72,12.042,27.078,9.646,.266-.067,.541,.093,.608,.36,.068,.268-.093,.54-.36,.608-2.019,.517-4.046,.754-6.043,.754Z" style="fill:#fff; opacity:.3;"></path><path d="M248.909,85.667c-.043,0-.086-.005-.129-.017-.267-.071-.425-.345-.354-.612,2.777-10.395,1.487-21.494-3.452-29.69-3.767-6.252-9.357-10.382-16.166-11.941-.269-.062-.437-.33-.375-.599,.062-.269,.331-.438,.599-.375,7.079,1.621,12.888,5.909,16.799,12.399,5.076,8.424,6.407,19.812,3.561,30.464-.06,.224-.262,.371-.482,.371Z" style="fill:#fff; opacity:.3;"></path><path d="M212.276,109.221c-3.627,0-7.269-1.159-10.205-3.283-3.396-2.457-5.86-6.212-6.761-10.304-.06-.27,.111-.536,.381-.596,.268-.061,.536,.111,.596,.381,.849,3.855,3.171,7.394,6.371,9.708,3.198,2.314,7.286,3.413,11.215,3.013,.29-.02,.52,.173,.548,.447,.028,.275-.172,.52-.447,.548-.564,.057-1.131,.085-1.698,.085Z" style="fill:#fff; opacity:.3;"></path><path d="M214.107,44.78c-9.451,.29-19.153,3.313-25.349,10.82-6.247,7.568-7.844,19.171-3.337,27.965,2.752,5.37,7.724,9.569,13.632,10.966,.469,.111,.67-.612,.199-.723-5.25-1.241-9.714-4.747-12.476-9.349-3.109-5.182-3.796-11.488-2.585-17.35,1.57-7.604,6.246-13.78,13.067-17.47,5.165-2.794,11.022-3.93,16.848-4.109,.481-.015,.484-.765,0-.75h0Z" style="fill:#263238;"></path><path d="M199.134,119.71c-1.024,0-2-.118-2.886-.375-5.043-1.462-8.972-5.945-9.552-10.903-.581-4.962,2.218-10.152,6.808-12.62,.243-.131,.547-.04,.677,.204,.131,.243,.04,.546-.204,.677-4.237,2.278-6.822,7.058-6.288,11.623,.535,4.569,4.169,8.706,8.837,10.059,4.816,1.395,12.444-1.631,15.552-5.069,.186-.204,.502-.221,.706-.035,.205,.185,.221,.501,.035,.706-2.73,3.019-8.768,5.733-13.686,5.733Z" style="fill:#263238;"></path><path d="M244.055,49.421l-.998-.057c.177-3.135-1.699-6.415-4.669-8.162-2.705-1.591-6.252-1.998-9.731-1.115-2.96,.751-5.933,2.406-8.837,4.919l-.654-.756c3.022-2.616,6.133-4.343,9.245-5.133,3.734-.947,7.555-.501,10.484,1.222,3.284,1.932,5.358,5.581,5.16,9.081Z" style="fill:#263238;"></path></g><path d="M317.775,217.713c1.149,.921,7.759,2.487,17.63,17.152,8.844,13.14,50.99,65.297,49.613,83.604-1.231,16.361-52.14,69.512-52.14,69.512l-10.287-11.539,31.618-57.365-29.65-30.414-6.785-70.95Z" style="fill:#fdbbb5;"></path><path d="M195.542,225.427c-1.437,.921-9.703,2.487-22.045,17.152-11.059,13.14-60.226,65.928-58.504,84.235,1.539,16.361,67.08,61.583,67.08,61.583l13.469-15.344-43.396-50.68,41.575-46.852,1.821-50.094Z" style="fill:#fdbbb5;"></path><g><path d="M303.545,214.432s15.302-1.051,24.236,9.634c6.026,7.208,36.733,46.373,36.733,46.373l-30.885,33.69-14.276-14.379-15.807-75.318Z" style="fill:#A8D5BA;"></path><path d="M323.136,293.561s.666-11.785-.08-21.704c-.746-9.919-3.232-20.977-3.232-20.977,0,0,7.29,9.425,9.841,19.13,2.551,9.704,3.964,34.119,3.964,34.119l-10.493-10.568Z" style="opacity:.2;"></path><path d="M324.559,272.406c0-16.128-19.024-57.689-19.024-57.689l-11.856-1.695-96.212,5.011,.869,2.031c6.787,28.539-9.712,59.396-9.712,59.396l6.345,11.026,16.868,76.289-30.785,59.854h143.508l-7.706-51.3s7.706-86.796,7.706-102.923Z" style="fill:#A8D5BA;"></path><path d="M201.169,218.432s-7.637-3.478-22.24,10.115c-13.733,12.784-40.709,45.613-40.709,45.613l33.371,41.484,29.048-31.005,.529-66.207Z" style="fill:#A8D5BA;"></path><polygon points="194.968 290.486 202.962 280.431 200.927 317.436 194.968 290.486" style="opacity:.2;"></polygon><path d="M252.806,334.159c-1.846,.911,28.916-33.326,28.916-33.326,0,0-6.415,22.217-28.916,33.326Z" style="opacity:.2;"></path><g style="opacity:.2;"><path d="M302.452,317.505c-21.769,20.574-21.769,18.372-42.158,26.604l42.158-26.604Z"></path></g></g><g><path d="M315.385,147.292c-5.965-2.159-10.242-8.329-10.172-14.671l1,.011c-.066,5.932,3.935,11.702,9.512,13.72l-.34,.94Z" style="fill:#263238;"></path><path d="M273.949,210.074c-3.674-3.63-4.467-6.501-3.803-11.816,.46-4.086,1.755-8.337,3.303-12.478l-5.483-5.896-28.496-26.464c1.449,18.402,6.423,48.086-7.566,58.688,0,0-15.805,5.179-26.216,5.179,4.818,3.631,42.067,48.809,69.587,45.436,25.034-3.069,22.73-42.599,18.403-49.701-8.669-.746-12.936-1.705-19.729-2.948Z" style="fill:#fdbbb5;"></path><path d="M270.217,200.634c-7.822-1.795-19.106-6.974-21.037-15.894-.794-3.67-.899-7.313-.696-9.74l23.37,14.496c-.262,3.486-2.181,6.144-1.637,11.138Z" style="opacity:.2;"></path><path d="M227.964,124.247c3.87,27.975,4.916,39.866,20.093,53.928,22.829,21.152,56.035,12.15,60.525-15.964,4.042-25.304-2.966-66.802-31.092-77.336-27.71-10.378-53.397,11.396-49.527,39.372Z" style="fill:#fdbbb5;"></path><path d="M259.435,123.944c.36,.02,.717-.105,.98-.376,4.102-4.248,9.051-3.114,9.108-3.101,.733,.17,1.441-.279,1.565-1.025,.122-.745-.38-1.492-1.123-1.673-.259-.061-6.471-1.49-11.56,3.784-.507,.525-.468,1.403,.086,1.961,.268,.267,.607,.413,.944,.431Z" style="fill:#263238;"></path><path d="M299.126,116.5c.324-.11,.599-.336,.752-.655,.315-.659-.008-1.465-.718-1.799-7.127-3.352-12.625-.331-12.857-.197-.653,.369-.839,1.186-.414,1.826,.423,.639,1.294,.858,1.947,.493,.214-.121,4.515-2.403,10.182,.263,.367,.172,.766,.186,1.108,.069Z" style="fill:#263238;"></path><path d="M283.876,129.329s4.881,10.313,10.142,16.64c.919,1.106,.46,2.803-.865,3.361-3.41,1.437-7.523,.469-7.523,.469l-1.753-20.47Z" style="fill:#ee7c74;"></path><path d="M273.027,127.902l-6.507,1.284,.011,.018c-1.576,.284-2.749,2.173-2.706,4.541,.049,2.637,1.585,4.861,3.432,4.968,1.847,.108,3.304-1.942,3.256-4.578-.027-1.51-.545-2.883-1.328-3.803,1.888-.446,3.842-2.43,3.842-2.43Z" style="fill:#263238;"></path><path d="M300.997,124.791l-6.436,1.397c.023,.041-.023-.038,0,0-1.607,.246-2.81,2.153-2.766,4.551,.049,2.636,1.585,4.86,3.432,4.968,1.847,.108,3.304-1.942,3.255-4.578-.028-1.56-.58-2.971-1.407-3.89,1.912-.408,3.921-2.448,3.921-2.448Z" style="fill:#263238;"></path><path d="M241.14,172.522c-51.628-17.871-31.373-93.203,17.867-93.35,63.394-.188,49.748,55.422,49.748,55.422-14.814-42.104-56.632-35.08-56.632-35.08,9.427,21.743-9.699,36.001-9.699,36.001-5.5,13.495-1.285,37.007-1.285,37.007Z" style="fill:#263238;"></path><path d="M224.66,146.979c3.209,5.022,8.187,8.038,12.665,8.944,6.735,1.363,9.679-9.501,7.099-16.068-2.323-5.911-9.05-9.584-15.469-7.975-6.325,1.585-7.965,9.356-4.295,15.098Z" style="fill:#fdbbb5;"></path><path d="M234.253,137.256c-2.958-1.023-6.239,1.297-6.338,4.399-.076,2.375,1.239,4.65,3.032,6.129,1.517,1.251,3.35,2.011,5.252,2.456,.47,.11,.67-.613,.199-.723-2.7-.631-5.361-1.974-6.803-4.443-.846-1.449-1.352-3.461-.524-5.03,.943-1.786,3.058-2.729,4.983-2.064,.457,.158,.653-.566,.199-.723h0Z" style="opacity:.2;"></path><g><path d="M280.794,157.296c-1.794,2.559-4.019,7.563-4.019,7.563-.489-.12-.979-.24-1.461-.385-6.6-1.792-9.07-4.805-9.806-7.6-.397-1.531-.256-3.01,.012-4.175,.296-1.351,.814-2.246,.814-2.246,2.931,3.04,8.955,5.185,12.221,6.197,1.363,.438,2.24,.646,2.24,.646Z" style="fill:#263238;"></path><path d="M278.554,156.65l-1.243,2.199c-6.212-1.703-10.358-3.736-11.792-6.149,.296-1.351,.814-2.246,.814-2.246,2.931,3.04,8.955,5.185,12.221,6.197Z" style="fill:#fff;"></path><path d="M275.313,164.474c-6.6-1.792-9.07-4.805-9.806-7.6,2.226,.697,4.831,1.786,6.934,3.443,1.613,1.26,2.436,2.754,2.872,4.157Z" style="fill:#fb504e;"></path></g><path d="M252.462,99.39c-.271,0-.494-.217-.5-.489-.006-.276,.213-.504,.489-.511,3.842-.084,7.814-.171,11.591-1.09,2.921-.71,6.979-2.268,9.727-5.65,2.5-3.081,3.264-7.309,1.9-10.521-.108-.254,.011-.547,.265-.656,.252-.107,.547,.011,.655,.265,1.528,3.598,.726,8.128-2.044,11.541-2.922,3.599-7.196,5.245-10.267,5.992-3.883,.944-7.91,1.033-11.806,1.118h-.011Z" style="fill:#fff; opacity:.3;"></path><path d="M284.254,104.941c-.273,0-.496-.219-.5-.493-.004-.276,.217-.503,.493-.507,5.834-.083,11.372-3.71,13.781-9.026,.113-.252,.412-.362,.661-.249,.252,.114,.363,.41,.249,.662-2.564,5.661-8.463,9.524-14.678,9.613h-.007Z" style="fill:#fff; opacity:.3;"></path><path d="M255.221,79.337c-9.132,1.491-17.653,5.642-24.469,11.866-6.808,6.189-13.045,13.109-17.04,21.489,3.139-8.79,9.486-16.103,16.436-22.169,6.914-6.239,15.809-10.273,25.072-11.186h0Z" style="fill:#A8D5BA;"></path><path d="M251.189,100.114c-.051,0-.103-.008-.153-.024-.263-.084-.407-.366-.323-.629,1.017-3.16,.405-6.767-1.599-9.414-2.003-2.646-5.313-4.206-8.625-4.097-.275,.028-.507-.205-.518-.481-.01-.276,.206-.508,.481-.518,3.635-.14,7.262,1.59,9.458,4.493,2.196,2.902,2.869,6.858,1.753,10.324-.067,.212-.265,.347-.476,.347Z" style="fill:#fff; opacity:.3;"></path><path d="M242.616,135.978l-.384-.924c4.92-2.042,9.858-9.097,11.611-14.462,3.859-11.805-.644-18.882-2.115-20.77l.789-.615c1.549,1.987,6.289,9.422,2.277,21.696-1.822,5.575-6.997,12.924-12.179,15.075Z" style="fill:#263238;"></path><path d="M245.064,173.022c-.103,0-.206-.032-.295-.097-.223-.163-.271-.476-.107-.699,3.321-4.524,3.664-12.257,.764-17.239-.523-.899-1.152-1.74-1.761-2.555-1.002-1.341-2.039-2.728-2.682-4.452-.749-2.008-.953-4.496-.589-7.197,.321-2.387,1.019-4.651,1.693-6.84,.081-.264,.358-.413,.625-.331,.264,.082,.412,.361,.331,.625-.663,2.15-1.349,4.374-1.658,6.679-.341,2.538-.156,4.86,.535,6.714,.594,1.59,1.542,2.86,2.546,4.203,.625,.837,1.272,1.702,1.824,2.65,3.134,5.384,2.772,13.437-.823,18.334-.098,.133-.25,.204-.403,.204Z" style="fill:#263238;"></path><path d="M208.838,164.974c-.219,0-.419-.145-.481-.366-2.483-8.892-.905-11.327,.923-14.146,1.781-2.748,3.801-5.863,2.068-16.71-.196-1.23-.68-2.346-1.193-3.527-.58-1.338-1.181-2.723-1.347-4.311-.225-2.13,.2-4.591,1.226-7.116,.906-2.229,2.147-4.248,3.348-6.2,.144-.235,.452-.31,.688-.164,.235,.145,.309,.453,.164,.688-1.179,1.917-2.398,3.9-3.272,6.053-.965,2.374-1.365,4.668-1.158,6.635,.151,1.436,.695,2.69,1.271,4.018,.515,1.186,1.046,2.413,1.263,3.767,1.793,11.227-.337,14.513-2.216,17.412-1.696,2.616-3.16,4.875-.799,13.333,.074,.266-.081,.542-.347,.616-.045,.013-.09,.019-.135,.019Z" style="fill:#263238;"></path></g><g><path d="M334.029,224.656c-.11,0-.219-.048-.293-.141-7.136-8.939-15.006-12.593-29.038-13.482-.207-.013-.364-.191-.351-.398,.014-.206,.188-.384,.397-.35,14.091,.892,22.384,4.75,29.577,13.761,.129,.162,.103,.398-.059,.527-.069,.056-.152,.082-.234,.082Z" style="fill:#A8D5BA;"></path><path d="M338.438,229.288c-.1,0-.2-.04-.273-.118l-2.406-2.566c-.142-.151-.134-.389,.017-.53,.151-.143,.389-.134,.53,.017l2.406,2.566c.142,.151,.134,.389-.017,.53-.072,.068-.165,.102-.257,.102Z" style="fill:#A8D5BA;"></path></g><path d="M329.062,374.936s-4.782-16.669-8.575-19.063c-3.792-2.395-23.405-7.169-24.725-4.724-1.32,2.445,1.416,3.849,1.416,3.849l-6.578,3.429s-.577,1.547,1.441,2.692c0,0-1.233,3.848,.849,4.821,2.082,.973,11.514,1.36,11.514,1.36l-8.707,2.038s-1.715,1.318,3.843,2.805c5.558,1.487,8.398-.391,8.398-.391,0,0,8.645,14.781,14.726,17.051,6.081,2.269,10.214-.823,10.214-.823l-3.816-13.044Z" style="fill:#fdbbb5;"></path></g><path d="M191.809,375.369s10.308-13.944,14.699-14.862c4.39-.917,24.435,1.468,24.816,4.22,.382,2.752-2.672,3.111-2.672,3.111l4.963,5.513s0,1.652-2.291,2.018c0,0-.191,4.037-2.481,4.22-2.291,.184-11.263-2.752-11.263-2.752l7.445,4.954s1.145,1.835-4.582,1.284c-5.727-.55-7.731-3.302-7.731-3.302,0,0-13.267,10.825-19.758,10.825s-10.881-2.202-10.881-2.202l9.736-13.027Z" style="fill:#fdbbb5;"></path></g></svg>
